<?xml version="1.0" encoding="utf-8"?>
<!-- Generator: Adobe Adobe Illustrator 24.2.0, SVG Export Plug-In . SVG Version: 6.00 Build 0)  -->
<svg version="1.1" xmlns="http://www.w3.org/2000/svg" xmlns:xlink="http://www.w3.org/1999/xlink" x="0px" y="0px"
	 width="345.25px" height="166px" viewBox="0 0 345.25 166" style="enable-background:new 0 0 345.25 166;" xml:space="preserve">
<style type="text/css">
	.st0{fill:#283D3B;stroke:#40827D;stroke-width:8.5;stroke-miterlimit:10;}
	.st1{fill:none;stroke:#40827D;stroke-width:8.5;stroke-miterlimit:10;}
	.st2{fill:#5FAD8E;stroke:#5FAD8E;stroke-width:8.5;stroke-miterlimit:10;}
	.st3{fill:#5FAD8E;stroke:#5FAD8E;stroke-width:2;stroke-miterlimit:10;}
	.st4{fill:#283D3B;}
	.st5{fill:#5FAD8E;stroke:#5FAD8E;stroke-miterlimit:10;}
	.st6{fill:none;stroke:#40827D;stroke-width:3;stroke-linecap:round;stroke-miterlimit:10;}
	.st7{fill:none;stroke:#40827D;stroke-width:4;stroke-linecap:round;stroke-miterlimit:10;}
	.st8{fill:none;stroke:#40827D;stroke-width:2;stroke-linecap:round;stroke-miterlimit:10;}
</style>
<g id="Layer_2">
	<polyline class="st0" points="186.78,30.65 71.91,32.07 37.58,32.5 	"/>
	<path class="st1" d="M251.21,127.49c0,0-65.16,10.48-101.21-13.92C112.7,88.33,123.66,48.75,72.22,32"/>
	
		<ellipse transform="matrix(0.0381 -0.9993 0.9993 0.0381 -11.7155 52.8223)" class="st2" cx="21.58" cy="32.5" rx="15.75" ry="16"/>
	<path class="st3" d="M187.25,26.25c0,0,12.84-29.77,46.62-23.24s44.64,13.61,44.64,13.61s-12.85,9.71-22.37,17.2
		c-9.66,7.61-38.14,22.01-55.51,12.61c-13.52-7.31-13.84-12.03-13.84-12.03L187.25,26.25z"/>
	<path class="st4" d="M200.43,82.95c0.03,0.35,0.09,0.69,0.19,1.03C200.59,83.64,200.52,83.21,200.43,82.95z"/>
	<path class="st3" d="M187.25,26.25c0,0,12.84-29.77,46.62-23.24s44.64,13.61,44.64,13.61s-12.85,9.71-22.37,17.2
		c-9.66,7.61-38.14,22.01-55.51,12.61c-13.52-7.31-13.84-12.03-13.84-12.03L187.25,26.25z"/>
	<path class="st5" d="M251.21,123.73c0,0,26.44-24.84,55.93-2.77s36.62,33.99,36.62,33.99s-16.93,3.41-29.62,6.23
		c-12.88,2.86-47.07,3.53-59.4-13.67c-9.6-13.39-7.69-18.11-7.69-18.11L251.21,123.73z"/>
</g>
<g id="Layer_4">
</g>
<g id="Layer_3">
	<g>
		<path class="st6" d="M268.24,16.97c-8.32,0.05-16.14,3.65-24.02,6.34c-11.29,3.87-23.18,4.72-35.11,4.95
			c-9.55,0.19-19.11-0.82-28.63-0.18"/>
		<path class="st6" d="M255.46,19.3c-15.91,5.13-29.51,10.43-50.82,12.6c-8.31,0.85-13.21,1.4-19.83,1.58
			c-2.29,0.06-4.83-0.37-7.13-0.31"/>
		<path class="st6" d="M250.34,21.15c-7.26,2.06-12.04,3.57-13.07,3.86c-14.7,4.16-27.26,3.78-55.29,3.78"/>
	</g>
	<path class="st6" d="M206.86,30.7c-11.4,0.76-22.83,1.03-34.25,0.82"/>
	<path class="st7" d="M231.38,6.31c-2.84,0.96-5.57,2.27-8.09,3.89c-9.07,5.82-17.73,16.66-27.62,20.95"/>
	<path class="st7" d="M218.18,29.98c1.47,4.47,3.45,8.77,5.87,12.79"/>
	<path class="st7" d="M247.77,9.85c-3.22,3.86-5.87,9.45-7.82,14.08"/>
	<path class="st7" d="M233.15,27.15c3.32,3.13,6.14,5.77,9.46,8.9"/>
	<path class="st6" d="M246.92,128.65c8.63,1.19,12.01-2.29,18.11-2.08c12.54,0.43,24.63,4.67,36.18,9.56s22.86,10.51,34.92,13.94"/>
	<path class="st6" d="M308.96,139.39c-7.59-3.02-16.23-6.06-24.23-7.72c-5.72-1.19-11.6-1.03-17.43-1.39
		c-3.88-0.24-15.66-0.71-29.18,0.56"/>
	<path class="st6" d="M328.13,147.53c-14.68-4.88-19.9-10.26-29.95-14.81c-10.05-4.55-20.89-7.91-31.91-7.54
		c-9.98,0.33-16.41-0.98-29.77,2.5"/>
	<path class="st7" d="M294.53,120.05c-4.7,2-9.39,4.01-14.09,6.01"/>
	<path class="st7" d="M269.46,129.22c3.44,11.15,11.9,20.65,22.58,25.36"/>
	<path class="st7" d="M319.53,135.68c-5.59,0.52-11.22,0.47-16.83,0.42"/>
	<path class="st7" d="M312,141.51c1.38,4.57,1.94,9.41,3.93,13.76"/>
	<path class="st6" d="M241.33,127.69c4.15-0.18,8.3-0.35,12.45-0.53c3.53-0.15,6.32,1.2,9.85,1.36c4.93,0.22,10.56-0.46,15.43,0.36"
		/>
	<path class="st8" d="M250.02,124.38c2.65-0.53,14.43-0.03,16.57,0.44"/>
	<path class="st8" d="M244.52,131.61c2.6-0.21,3.68-0.79,9.25-1.24"/>
</g>
</svg>
